<svg width="36" height="36" viewBox="0 0 36 36" fill="none" xmlns="http://www.w3.org/2000/svg">
<g id="interactive-button/history">
<path id="Vector" fill-rule="evenodd" clip-rule="evenodd" d="M3.1415 15.932H1.3374L4.50011 20.7225L7.66281 15.932H6.17764C7.15767 10.2901 12.0779 6 18.0001 6C24.6275 6 30.0001 11.3726 30.0001 18C30.0001 24.6274 24.6275 30 18.0001 30C13.8276 30 10.1516 27.8717 7.99921 24.6345L5.50101 26.2956C8.18579 30.3335 12.7812 33 18.0001 33C26.2844 33 33.0001 26.2843 33.0001 18C33.0001 9.71573 26.2844 3 18.0001 3C10.4175 3 4.14893 8.62633 3.1415 15.932ZM18.7501 18V12.75H15.7501V21H24.0001V18H18.7501Z" fill="#4E5969"/>
</g>
</svg>
