<svg width="15" height="14" viewBox="0 0 15 14" fill="none" xmlns="http://www.w3.org/2000/svg">
<g id="interactive-button/search">
<path id="Vector" fill-rule="evenodd" clip-rule="evenodd" d="M9.73306 3.45835C8.13841 1.86371 5.55299 1.86371 3.95835 3.45835C2.36371 5.05299 2.36371 7.63841 3.95835 9.23306C5.55299 10.8277 8.13841 10.8277 9.73306 9.23306C11.3277 7.63841 11.3277 5.05299 9.73306 3.45835ZM3.13339 2.63339C5.18364 0.58314 8.50776 0.58314 10.558 2.63339C12.4688 4.54422 12.5988 7.56156 10.9478 9.62288L13.0329 11.7079L12.2079 12.5329L10.1229 10.4478C8.06156 12.0988 5.04422 11.9688 3.13339 10.058C1.08314 8.00776 1.08314 4.68364 3.13339 2.63339Z" fill="white"/>
</g>
</svg>
