<svg width="36" height="36" viewBox="0 0 36 36" fill="none" xmlns="http://www.w3.org/2000/svg">
<g id="general/user">
<path id="Vector" fill-rule="evenodd" clip-rule="evenodd" d="M13.5 11.25C13.5 8.76472 15.5147 6.75 18 6.75C20.4853 6.75 22.5 8.76472 22.5 11.25C22.5 13.7353 20.4853 15.75 18 15.75C15.5147 15.75 13.5 13.7353 13.5 11.25ZM18 3.75C13.8579 3.75 10.5 7.10786 10.5 11.25C10.5 15.3921 13.8579 18.75 18 18.75C22.1421 18.75 25.5 15.3921 25.5 11.25C25.5 7.10786 22.1421 3.75 18 3.75ZM12 20.25C9.84118 20.25 7.7928 20.9078 6.25788 22.2071C4.69917 23.5266 3.75 25.4456 3.75 27.75V30C3.75 31.2426 4.75736 32.25 6 32.25H30C31.2426 32.25 32.25 31.2426 32.25 30V27.75C32.25 25.4456 31.3008 23.5266 29.7421 22.2071C28.2072 20.9078 26.1588 20.25 24 20.25H12ZM6.75 27.75C6.75 26.3265 7.31187 25.2455 8.19617 24.4969C9.10428 23.7282 10.4309 23.25 12 23.25H24C25.5691 23.25 26.8957 23.7282 27.8038 24.4969C28.6881 25.2455 29.25 26.3265 29.25 27.75V29.25H6.75V27.75Z" fill="#4E5969"/>
</g>
</svg>
